#N canvas 417 133 875 472 10;
#X floatatom 56 94 5 0 0 0 - - -;
#X obj 3 165 tgl 15 0 empty empty empty 17 7 0 10 -262144 -1 -1 1 1
;
#X obj 20 165 tgl 15 0 empty empty empty 17 7 0 10 -262144 -1 -1 0
1;
#X obj 37 165 tgl 15 0 empty empty empty 17 7 0 10 -262144 -1 -1 0
1;
#X obj 54 165 tgl 15 0 empty empty empty 17 7 0 10 -262144 -1 -1 1
1;
#X obj 71 165 tgl 15 0 empty empty empty 17 7 0 10 -262144 -1 -1 0
1;
#X obj 88 165 tgl 15 0 empty empty empty 17 7 0 10 -262144 -1 -1 0
1;
#X obj 105 165 tgl 15 0 empty empty empty 17 7 0 10 -262144 -1 -1 1
1;
#X obj 122 165 tgl 15 0 empty empty empty 17 7 0 10 -262144 -1 -1 0
1;
#X msg 24 125 bang;
#X msg 65 125 bang;
#X msg 101 125 bang;
#X msg 136 125 bang;
#X msg 172 125 bang;
#X msg 209 125 bang;
#X msg 246 125 bang;
#X msg 282 125 bang;
#X obj 10 229 int;
#X floatatom 79 271 5 0 0 0 - - -;
#X obj 149 227 int;
#X obj 123 227 int;
#X obj 97 227 int;
#X obj 174 227 int;
#X obj 201 226 int;
#X obj 70 228 int;
#X obj 40 229 int;
#X obj 84 318 bng 15 250 50 0 empty empty empty 17 7 0 10 -262144 -1
-1;
#X obj 81 294 select 1;
#X obj 84 338 outlet;
#X obj 158 261 cnv 15 100 60 empty empty empty 20 12 0 14 -233017 -66577
0;
#X obj 132 85 select 0 1 2 3 4 5 6 7 8 9 10 11 12 13 14 15;
#X msg 483 123 bang;
#X msg 520 123 bang;
#X msg 562 123 bang;
#X msg 600 123 bang;
#X msg 327 124 bang;
#X msg 366 124 bang;
#X msg 405 124 bang;
#X msg 443 124 bang;
#X text 290 156 comment;
#X obj 139 165 tgl 15 0 empty empty empty 17 7 0 10 -262144 -1 -1 1
1;
#X obj 156 165 tgl 15 0 empty empty empty 17 7 0 10 -262144 -1 -1 0
1;
#X obj 173 165 tgl 15 0 empty empty empty 17 7 0 10 -262144 -1 -1 0
1;
#X obj 190 165 tgl 15 0 empty empty empty 17 7 0 10 -262144 -1 -1 1
1;
#X obj 207 165 tgl 15 0 empty empty empty 17 7 0 10 -262144 -1 -1 0
1;
#X obj 224 165 tgl 15 0 empty empty empty 17 7 0 10 -262144 -1 -1 0
1;
#X obj 241 165 tgl 15 0 empty empty empty 17 7 0 10 -262144 -1 -1 1
1;
#X obj 258 165 tgl 15 0 empty empty empty 17 7 0 10 -262144 -1 -1 0
1;
#X obj 226 226 int;
#X obj 365 224 int;
#X obj 339 224 int;
#X obj 313 224 int;
#X obj 390 224 int;
#X obj 417 223 int;
#X obj 286 225 int;
#X obj 256 226 int;
#X obj 663 139 print osc;
#X obj 695 86 OSCroute /multitoggle;
#X obj 283 20 OSCroute /1 /2 /3 /4 /5 /6 /7 /8 /9 /10 /11 /12 /13 /14
/15 /16;
#X obj 79 37 r step;
#X obj 699 112 OSCroute /\$1;
#X obj 688 11 r osc-seq;
#X connect 1 0 17 1;
#X connect 2 0 25 1;
#X connect 3 0 24 1;
#X connect 4 0 21 1;
#X connect 5 0 20 1;
#X connect 6 0 19 1;
#X connect 7 0 22 1;
#X connect 8 0 23 1;
#X connect 9 0 17 0;
#X connect 10 0 25 0;
#X connect 11 0 24 0;
#X connect 12 0 21 0;
#X connect 13 0 20 0;
#X connect 14 0 19 0;
#X connect 15 0 22 0;
#X connect 16 0 23 0;
#X connect 17 0 18 0;
#X connect 18 0 27 0;
#X connect 19 0 18 0;
#X connect 20 0 18 0;
#X connect 21 0 18 0;
#X connect 22 0 18 0;
#X connect 23 0 18 0;
#X connect 24 0 18 0;
#X connect 25 0 18 0;
#X connect 26 0 28 0;
#X connect 27 0 26 0;
#X connect 30 0 9 0;
#X connect 30 1 10 0;
#X connect 30 2 11 0;
#X connect 30 3 12 0;
#X connect 30 4 13 0;
#X connect 30 5 14 0;
#X connect 30 6 15 0;
#X connect 30 7 16 0;
#X connect 30 8 35 0;
#X connect 30 9 36 0;
#X connect 30 10 37 0;
#X connect 30 11 38 0;
#X connect 30 12 31 0;
#X connect 30 13 32 0;
#X connect 30 14 33 0;
#X connect 30 15 34 0;
#X connect 31 0 50 0;
#X connect 32 0 49 0;
#X connect 33 0 52 0;
#X connect 34 0 53 0;
#X connect 35 0 48 0;
#X connect 36 0 55 0;
#X connect 37 0 54 0;
#X connect 38 0 51 0;
#X connect 40 0 48 1;
#X connect 41 0 55 1;
#X connect 42 0 54 1;
#X connect 43 0 51 1;
#X connect 44 0 50 1;
#X connect 45 0 49 1;
#X connect 46 0 52 1;
#X connect 47 0 53 1;
#X connect 48 0 18 0;
#X connect 49 0 18 0;
#X connect 50 0 18 0;
#X connect 51 0 18 0;
#X connect 52 0 18 0;
#X connect 53 0 18 0;
#X connect 54 0 18 0;
#X connect 55 0 18 0;
#X connect 57 0 60 0;
#X connect 58 0 1 0;
#X connect 58 1 2 0;
#X connect 58 2 3 0;
#X connect 58 3 4 0;
#X connect 58 4 5 0;
#X connect 58 5 6 0;
#X connect 58 6 7 0;
#X connect 58 7 8 0;
#X connect 58 8 40 0;
#X connect 58 9 41 0;
#X connect 58 10 42 0;
#X connect 58 11 43 0;
#X connect 58 12 44 0;
#X connect 58 13 45 0;
#X connect 58 14 46 0;
#X connect 58 15 47 0;
#X connect 59 0 30 0;
#X connect 59 0 0 0;
#X connect 60 0 56 0;
#X connect 60 0 58 0;
#X connect 61 0 57 0;
#X coords 0 -1 1 1 280 40 1 0 150;
