#N canvas 553 387 1027 663 10;
#X obj -40 13 inlet;
#X obj 31 14 inlet;
#X obj 195 322 phasor~;
#X floatatom 10 320 5 0 0 0 - - -;
#X obj 122 246 mtof;
#X obj 209 261 sig~;
#X floatatom 258 289 5 0 0 0 - - -;
#X floatatom 296 289 5 0 0 0 - - -;
#X floatatom 340 293 5 0 0 0 - - -;
#X floatatom 181 171 5 0 0 0 - - -;
#X obj 166 96 int;
#X obj 173 133 mod 3;
#X obj 232 93 + 1;
#X msg 166 72 bang;
#X obj 14 125 metro 20;
#X msg 21 81 bang;
#X obj 275 233 select 0 1 2;
#X msg 259 266 bang;
#X msg 295 266 bang;
#X msg 338 267 bang;
#X obj 133 214 +;
#X floatatom 67 77 5 0 0 0 - - -;
#X obj -20 210 stripnote;
#X obj 164 438 *~;
#X obj 235 455 throw~ \$1;
#X obj -49 51 unpack 0 0;
#X obj 17 248 print;
#X obj 77 17 inlet;
#X obj 119 18 inlet;
#X obj 162 17 inlet;
#X obj 297 40 loadbang;
#X obj 131 359 adsr 1 5 30 50 30;
#X connect 0 0 25 0;
#X connect 1 0 21 0;
#X connect 2 0 23 0;
#X connect 3 0 20 1;
#X connect 4 0 5 0;
#X connect 5 0 2 0;
#X connect 6 0 20 0;
#X connect 7 0 20 0;
#X connect 8 0 20 0;
#X connect 9 0 16 0;
#X connect 10 0 12 0;
#X connect 11 0 10 1;
#X connect 11 0 9 0;
#X connect 12 0 11 0;
#X connect 13 0 10 0;
#X connect 14 0 13 0;
#X connect 15 0 14 0;
#X connect 16 0 17 0;
#X connect 16 1 18 0;
#X connect 16 2 19 0;
#X connect 17 0 6 0;
#X connect 18 0 7 0;
#X connect 19 0 8 0;
#X connect 20 0 4 0;
#X connect 21 0 14 1;
#X connect 22 0 3 0;
#X connect 23 0 24 0;
#X connect 25 0 22 0;
#X connect 25 1 22 1;
#X connect 25 1 26 0;
#X connect 25 1 31 0;
#X connect 27 0 6 0;
#X connect 28 0 7 0;
#X connect 29 0 8 0;
#X connect 30 0 15 0;
#X connect 31 0 23 1;
