#N canvas 734 196 728 487 10;
#X obj 239 59 phasor~;
#X floatatom 112 106 5 0 0 0 - - -;
#X obj 120 182 mtof;
#X obj 207 197 sig~;
#X floatatom 256 225 5 0 0 0 - - -;
#X floatatom 294 225 5 0 0 0 - - -;
#X floatatom 338 229 5 0 0 0 - - -;
#X floatatom 179 107 5 0 0 0 - - -;
#X obj 164 32 int;
#X obj 171 69 mod 3;
#X obj 230 29 + 1;
#X msg 164 8 bang;
#X obj 12 61 metro 20;
#X msg 19 17 bang;
#X obj 273 169 select 0 1 2;
#X msg 257 202 bang;
#X msg 293 202 bang;
#X msg 336 203 bang;
#X obj 131 150 +;
#X floatatom 65 13 5 0 0 0 - - -;
#X obj 23 215 notein;
#X obj 453 176 freeverb~;
#X obj 346 348 dddd-puredata-patches/output~;
#X msg 450 103 roomsize 0.4 damping 0.6 width 0.4 \, wet 1 \, dry 0
;
#X obj 98 254 stripnote;
#X obj 162 374 *~;
#X obj 322 270 *~ 1;
#X obj 129 295 adsr 1 10 300 50 30;
#X obj 353 -28 poly 4 1;
#X obj 361 16 pack 0 0 0;
#X obj 363 53 print p;
#X connect 0 0 25 0;
#X connect 1 0 18 1;
#X connect 2 0 3 0;
#X connect 3 0 0 0;
#X connect 4 0 18 0;
#X connect 5 0 18 0;
#X connect 6 0 18 0;
#X connect 7 0 14 0;
#X connect 8 0 10 0;
#X connect 9 0 8 1;
#X connect 9 0 7 0;
#X connect 10 0 9 0;
#X connect 11 0 8 0;
#X connect 12 0 11 0;
#X connect 13 0 12 0;
#X connect 14 0 15 0;
#X connect 14 1 16 0;
#X connect 14 2 17 0;
#X connect 15 0 4 0;
#X connect 16 0 5 0;
#X connect 17 0 6 0;
#X connect 18 0 2 0;
#X connect 19 0 12 1;
#X connect 20 0 24 0;
#X connect 20 0 28 0;
#X connect 20 1 24 1;
#X connect 20 1 27 0;
#X connect 21 0 22 0;
#X connect 21 1 22 1;
#X connect 23 0 21 0;
#X connect 24 0 1 0;
#X connect 24 0 27 0;
#X connect 25 0 22 0;
#X connect 25 0 26 0;
#X connect 26 0 21 0;
#X connect 26 0 22 0;
#X connect 26 0 22 1;
#X connect 27 0 25 1;
#X connect 28 0 29 0;
#X connect 28 1 29 1;
#X connect 28 2 29 2;
#X connect 29 0 30 0;
