#N canvas 222 46 1027 727 10;
#X obj 11 438 output~;
#X floatatom 158 171 5 0 0 0 - - -;
#N canvas 0 22 450 300 (subpatch) 0;
#X array grain-sample 400000 float 2;
#X coords 0 1 400000 -1 200 140 1;
#X restore 400 34 graph;
#X obj 67 97 soundfiler;
#X obj 63 15 loadbang;
#X floatatom 248 206 5 0 0 0 - - -;
#X floatatom 295 203 5 0 0 0 - - -;
#X obj 246 167 mtof;
#X floatatom 240 123 5 0 0 0 - - -;
#X obj 27 173;
#X floatatom 37 141 5 0 0 0 - - -;
#X obj 196 231 grainer grain-sample;
#X obj 51 221 vsl 15 128 10 100000 0 0 empty empty empty 0 -9 0 10
-262144 -1 -1 2700 1;
#X obj 337 144 adc~;
#X obj 498 241 feedback-delay;
#X obj 481 255 vsl 15 128 0.01 1 1 0 empty empty empty 0 -9 0 10 -262144
-1 -1 8900 1;
#X obj 311 346 *~;
#X obj 292 445 freeverb~;
#X msg 199 375 roomsize 0.95 \, wet 0.5 \, damping 0.9;
#X msg 63 58 read funkydrummer.wav grain-sample;
#X obj 101 371 vcf~;
#X floatatom 149 362 5 0 0 0 - - -;
#X msg 429 504;
#X floatatom 107 295 5 0 0 0 - - -;
#X obj 107 337 sig~;
#X obj 134 510 moog~;
#X obj -21 242 mtof;
#X obj -127 234 vsl 15 128 0 127 0 0 empty empty empty 0 -9 0 10 -262144
-1 -1 11500 1;
#X connect 1 0 11 0;
#X connect 3 0 10 0;
#X connect 4 0 19 0;
#X connect 4 0 18 0;
#X connect 5 0 11 2;
#X connect 6 0 11 3;
#X connect 7 0 5 0;
#X connect 8 0 7 0;
#X connect 10 0 11 1;
#X connect 11 0 20 0;
#X connect 11 0 25 0;
#X connect 12 0 1 0;
#X connect 13 0 11 4;
#X connect 14 0 0 0;
#X connect 14 0 0 1;
#X connect 15 0 16 1;
#X connect 16 0 14 0;
#X connect 16 0 17 0;
#X connect 17 0 0 0;
#X connect 17 1 0 1;
#X connect 18 0 17 0;
#X connect 19 0 3 0;
#X connect 21 0 20 2;
#X connect 21 0 25 2;
#X connect 24 0 20 1;
#X connect 24 0 25 1;
#X connect 25 0 0 0;
#X connect 25 0 0 1;
#X connect 25 0 16 0;
#X connect 26 0 24 0;
#X connect 27 0 26 0;
