#N canvas 621 551 812 517 10;
#X obj 99 258 tabread4~ \$1;
#X obj 27 16 inlet;
#X obj 418 35 cnv 15 100 60 empty empty empty 20 12 0 14 -233017 -66577
0;
#X obj 45 258 phasor~;
#X obj 150 140 phasor~;
#X text 21 44 inlet 1: length of loop in milliseconds;
#X obj 67 16 inlet;
#X obj 106 16 inlet;
#X text 21 69 inlet 3: frequency in herz of grain player;
#X text 21 56 inlet 2: length of loop in samples;
#X obj 304 27 bng 50 250 50 0 empty empty Start 17 27 0 10 -86277 -262144
-262144;
#X obj 366 26 bng 50 250 50 0 empty empty Stop 17 27 0 10 -16662 -262144
-262144;
#X obj 551 138 timer;
#X msg 433 103 stop;
#X obj 189 16 inlet~;
#X floatatom 733 26 10 0 0 0 - - -;
#X text 570 25 length of loop in samples;
#X obj 594 52 * 44.1;
#X obj 148 111 sig~;
#X obj 148 17 inlet;
#X text 22 86 inlet 4: grain size in samples;
#X obj 163 176 *~;
#X obj 86 212 +~;
#X obj 38 280 *~;
#X obj 405 125 tabwrite~ \$1;
#X obj 245 253 -~ 0.5;
#X obj 241 286 *~ 0.5;
#X obj 243 350 *~;
#X obj 247 319 cos~;
#X obj 187 470 outlet~;
#X obj 178 426 hip~ 5;
#X floatatom 241 155 5 0 0 0 - - -;
#X floatatom 31 121 5 0 0 0 - - -;
#X obj 14 185 44.1;
#X obj 20 210 /;
#X msg 55 155 bang;
#X floatatom 23 334 5 0 0 0 - - -;
#X obj 37 237 * 100;
#X obj 510 210;
#X connect 0 0 27 1;
#X connect 1 0 32 0;
#X connect 3 0 23 0;
#X connect 4 0 21 0;
#X connect 4 0 25 0;
#X connect 6 0 15 0;
#X connect 7 0 18 0;
#X connect 10 0 12 0;
#X connect 10 0 24 0;
#X connect 11 0 12 1;
#X connect 11 0 13 0;
#X connect 12 0 17 0;
#X connect 13 0 24 0;
#X connect 14 0 24 0;
#X connect 15 0 23 1;
#X connect 17 0 15 0;
#X connect 18 0 4 0;
#X connect 19 0 21 1;
#X connect 21 0 22 1;
#X connect 22 0 0 0;
#X connect 23 0 22 0;
#X connect 25 0 26 0;
#X connect 26 0 28 0;
#X connect 27 0 30 0;
#X connect 28 0 27 0;
#X connect 30 0 29 0;
#X connect 32 0 34 1;
#X connect 32 0 35 0;
#X connect 33 0 34 0;
#X connect 34 0 36 0;
#X connect 34 0 37 0;
#X connect 35 0 33 0;
#X connect 37 0 3 0;
#X coords 0 -1 1 1 120 80 1 300 0;
