#N canvas 628 27 702 672 10;
#X obj 35 25 notein;
#X obj 67 72 poly 4 1;
#X obj 256 175 catch~ sound;
#X obj 319 125 freeverb~;
#X obj 141 204 route 1 2 3 4;
#X obj 184 428 dddd-puredata-patches/output~;
#X floatatom -29 165 5 0 0 0 - - -;
#X floatatom 14 179 5 0 0 0 - - -;
#X floatatom 59 179 5 0 0 0 - - -;
#X floatatom -68 149 5 0 0 0 - - -;
#X obj 57 239 chipper sound;
#X obj 289 260 svf~;
#X obj 297 338 *~ 1;
#X obj 429 281 sig~;
#X obj 409 201 sig~;
#X obj 489 135 vsl 15 128 0 1 0 0 empty empty empty 0 -9 0 10 -262144
-1 -1 8500 1;
#X obj 460 113 vsl 15 128 0 20000 0 0 empty empty empty 0 -9 0 10 -262144
-1 -1 127 1;
#X msg 316 52 roomsize 0.7 damping 0.6 width 0.4 \, wet 1 \, dry 0
;
#X obj 60 319 chipper sound;
#X obj 56 264 chipper sound;
#X obj 56 292 chipper sound;
#X msg 448 443 band;
#X msg 447 410 low;
#X msg 454 372 high;
#X obj -48 43 ctlin 16;
#X obj -58 95 * 2;
#X obj 328 80 ctlin 74;
#X obj 388 91 * 100;
#X obj 68 115 pack 0 0 0;
#X obj 185 10 ctlin 71;
#X obj 497 100 / 127;
#X obj 46 406 feedback-delay;
#X obj 10 432 vsl 15 128 0 1 0 0 empty empty empty 0 -9 0 10 -262144
-1 -1 7500 1;
#X obj -20 481 *~;
#X connect 0 0 1 0;
#X connect 0 1 1 1;
#X connect 1 0 28 0;
#X connect 1 1 28 1;
#X connect 1 2 28 2;
#X connect 2 0 11 0;
#X connect 3 0 5 0;
#X connect 3 1 5 1;
#X connect 4 0 10 0;
#X connect 4 1 19 0;
#X connect 4 2 20 0;
#X connect 4 3 18 0;
#X connect 6 0 10 2;
#X connect 6 0 18 2;
#X connect 6 0 19 2;
#X connect 6 0 20 2;
#X connect 7 0 10 3;
#X connect 7 0 18 3;
#X connect 7 0 19 3;
#X connect 7 0 20 3;
#X connect 8 0 10 4;
#X connect 8 0 18 4;
#X connect 8 0 19 4;
#X connect 8 0 20 4;
#X connect 9 0 10 1;
#X connect 9 0 18 1;
#X connect 9 0 19 1;
#X connect 9 0 20 1;
#X connect 11 0 12 0;
#X connect 12 0 5 0;
#X connect 12 0 5 1;
#X connect 12 0 3 0;
#X connect 12 0 33 0;
#X connect 13 0 11 2;
#X connect 14 0 11 1;
#X connect 15 0 13 0;
#X connect 16 0 14 0;
#X connect 17 0 3 0;
#X connect 21 0 11 0;
#X connect 22 0 11 0;
#X connect 23 0 11 0;
#X connect 24 0 25 0;
#X connect 25 0 9 0;
#X connect 26 0 27 0;
#X connect 27 0 16 0;
#X connect 28 0 4 0;
#X connect 29 0 30 0;
#X connect 30 0 15 0;
#X connect 31 0 5 0;
#X connect 31 0 5 1;
#X connect 31 0 3 0;
#X connect 32 0 33 1;
#X connect 33 0 31 0;
