#N canvas 465 136 534 414 10;
#X obj -38 -56 int;
#X obj -3 -56 + 1;
#X msg -38 -81 bang;
#X obj 30 -55 mod 16;
#X floatatom -38 8 5 0 0 0 - - -;
#X obj 108 -74 metro;
#X msg 95 -112 bang;
#X msg 142 -111 stop;
#X floatatom 58 17 5 50 300 0 - - -;
#X obj 214 -83 /;
#X msg 214 -155 bang;
#X obj 247 -65 * 250;
#X obj 222 -122 60;
#X obj -67 -181 cnv 15 100 60 empty empty empty 20 12 0 14 -233017
-66577 0;
#X obj 12 159 outlet;
#X obj 16 35 bng 30 250 50 0 empty empty > 7 16 0 20 -13381 -262144
-262144;
#X obj 52 50 bng 30 250 50 0 empty empty = 6 16 0 20 -86277 -262144
-262144;
#X obj -48 118 mod 2;
#X obj -9 186 select 1;
#X obj -47 149 *;
#X floatatom -55 185 5 0 0 0 - - -;
#X obj 183 36 *;
#X floatatom 195 -6 5 0 1 0 - - -;
#X obj 99 137;
#X floatatom -40 31 5 0 0 0 - - -;
#X obj 141 115 bng 15 50 10 0 empty empty empty 17 7 0 10 -262144 -1
-1;
#X msg 254 -18 bang;
#X obj 141 97 bng 15 50 10 0 empty empty empty 17 7 0 10 -262144 -1
-1;
#X obj 15 128 pipe;
#X obj 17 82 pipe 1;
#X obj 208 89 vsl 15 128 0 127 0 0 empty empty empty 0 -9 0 10 -262144
-1 -1 0 1;
#X obj 91 22 vradio 15 1 1 4 empty empty shuffle 0 -8 0 10 -262144
-1 -1 1;
#X floatatom 280 148 5 0 0 0 - - -;
#X obj 263 194 / 5;
#X msg 345 46 0;
#X obj 256 -152 select 1;
#X obj 300 -129 select 1;
#X obj 383 -124 select 1;
#X obj 318 121 r osc-pad;
#X obj 136 -178 OSCroute /push10 /push11 /push12 /fader1 /fader2;
#X obj 316 -46 * 250;
#X obj 311 4 + 50;
#X obj 402 10 * 3;
#X connect 0 0 1 0;
#X connect 0 0 4 0;
#X connect 0 0 17 0;
#X connect 0 0 27 0;
#X connect 1 0 3 0;
#X connect 2 0 0 0;
#X connect 3 0 0 1;
#X connect 4 0 29 0;
#X connect 5 0 2 0;
#X connect 6 0 5 0;
#X connect 7 0 5 0;
#X connect 8 0 9 1;
#X connect 8 0 10 0;
#X connect 9 0 11 0;
#X connect 10 0 12 0;
#X connect 11 0 5 1;
#X connect 11 0 21 1;
#X connect 11 0 26 0;
#X connect 12 0 9 0;
#X connect 15 0 6 0;
#X connect 16 0 7 0;
#X connect 17 0 19 0;
#X connect 19 0 20 0;
#X connect 19 0 28 1;
#X connect 21 0 19 1;
#X connect 22 0 21 0;
#X connect 26 0 22 0;
#X connect 28 0 14 0;
#X connect 28 0 24 0;
#X connect 29 0 28 0;
#X connect 31 0 32 0;
#X connect 32 0 33 0;
#X connect 33 0 22 0;
#X connect 34 0 0 0;
#X connect 35 0 15 0;
#X connect 36 0 16 0;
#X connect 37 0 34 0;
#X connect 38 0 39 0;
#X connect 39 0 35 0;
#X connect 39 1 36 0;
#X connect 39 2 37 0;
#X connect 39 3 40 0;
#X connect 39 4 42 0;
#X connect 40 0 41 0;
#X connect 41 0 8 0;
#X connect 42 0 31 0;
#X coords 0 -1 1 1 100 80 1 10 10;
